<svg width="14" height="14" viewBox="0 0 14 14" fill="none" xmlns="http://www.w3.org/2000/svg">
<path d="M7.00016 0.333008C3.32016 0.333008 0.333496 3.31967 0.333496 6.99967C0.333496 10.6797 3.32016 13.6663 7.00016 13.6663C10.6802 13.6663 13.6668 10.6797 13.6668 6.99967C13.6668 3.31967 10.6802 0.333008 7.00016 0.333008ZM7.00016 12.333C4.06016 12.333 1.66683 9.93967 1.66683 6.99967C1.66683 4.05967 4.06016 1.66634 7.00016 1.66634C9.94016 1.66634 12.3335 4.05967 12.3335 6.99967C12.3335 9.93967 9.94016 12.333 7.00016 12.333ZM10.0602 4.05301L5.66683 8.44634L3.94016 6.72634L3.00016 7.66634L5.66683 10.333L11.0002 4.99967L10.0602 4.05301Z" fill="#087E6B"/>
</svg>
